# xmcd
#
# Track frame offsets:
#	150
#	14583
#	25500
#	37723
#	50753
#	62320
#	79307
#	92542
#	104361
#	115059
#	129133
#	141664
#	154723
#	168823
#
# Disc length: 2387
#
# Revision: 3
# Processed by: cddbd v1.5.1PL0 Copyright (c) Steve Scherf et al.
# Submitted via: tcd 2.0b
# Normalized: r2:TDELIM( - )
#
DISCID=a409510e
DTITLE=Various Artist - The Ultimate Soul Collection [CD1]
DYEAR=1900
DGENRE=
TTITLE0=Marvin Gaye - I Heard it Through the Grapevine
TTITLE1=Aretha Franklin - Respect
TTITLE2=Four Tops - I Can't Help Myself
TTITLE3=Supremes - Stop in the Name of Love
TTITLE4=Wilson Pickett - In the Midnight Hour
TTITLE5=Ottis Redding - Try a Little Tenderness
TTITLE6=Fontella Bass - Rescue Me
TTITLE7=Sam and Dave - Soul Man
TTITLE8=Arthur Conley - Sweet Soul Music
TTITLE9=Wilson Pickett - Mustang Sally
TTITLE10=J.J. Jackson - But it's Allright
TTITLE11=Booker T and the MG's - Green Onions
TTITLE12=Eddie Floyd - Knock on Wood
TTITLE13=Bar-Kays - Soul Finger
EXTD=Disc one of a two disc set.
EXTT0=
EXTT1=
EXTT2=
EXTT3=
EXTT4=
EXTT5=
EXTT6=
EXTT7=
EXTT8=
EXTT9=
EXTT10=
EXTT11=
EXTT12=
EXTT13=
PLAYORDER=
